<?xml version="1.0" encoding="UTF-8"?>
<svg id="Layer_2" data-name="Layer 2" xmlns="http://www.w3.org/2000/svg" viewBox="0 0 150 150">
  <defs>
    <style>
      .cls-1 {
        fill: #221e44;
      }
    </style>
  </defs>
  <g id="Layer_1-2" data-name="Layer 1">
    <g>
      <g>
        <polygon class="cls-1" points="150 150 139.29 150 139.29 148.05 148.05 148.05 148.05 139.29 150 139.29 150 150"/>
        <polygon class="cls-1" points="10.71 150 0 150 0 139.29 1.95 139.29 1.95 148.05 10.71 148.05 10.71 150"/>
        <polygon class="cls-1" points="1.95 10.71 0 10.71 0 0 10.71 0 10.71 1.95 1.95 1.95 1.95 10.71"/>
        <polygon class="cls-1" points="150 10.71 148.05 10.71 148.05 1.95 139.29 1.95 139.29 0 150 0 150 10.71"/>
      </g>
      <g>
        <g>
          <polygon class="cls-1" points="122.43 71.46 119.99 73.89 115.34 78.55 109.97 83.91 108.25 85.64 101.16 92.73 99.94 93.94 94.07 99.82 89.92 103.96 79.89 113.99 37.36 113.99 44.45 106.9 47.38 103.96 51.54 99.82 57.41 93.94 58.63 92.73 65.72 85.64 67.44 83.91 72.8 78.55 77.46 73.89 87.49 63.86 94.07 57.28 86.98 50.19 83.33 53.84 73.31 63.86 72.3 63.86 72.8 64.37 65.71 71.46 63.28 73.89 58.63 78.55 53.26 83.91 51.54 85.64 44.45 92.73 43.23 93.94 37.36 99.81 33.2 103.96 23.18 113.99 9 113.99 30.27 92.72 37.36 85.64 39.08 83.91 44.45 78.55 49.1 73.89 51.54 71.46 58.62 64.37 79.89 43.1 86.98 36.01 108.25 57.28 101.67 63.86 100.65 63.86 101.16 64.37 79.89 85.64 72.81 92.73 71.59 93.94 65.72 99.82 61.56 103.96 75.74 103.96 85.76 93.94 86.98 92.73 94.07 85.64 95.79 83.91 101.16 78.55 105.81 73.89 108.25 71.46 115.34 64.37 122.43 71.46"/>
          <polygon class="cls-1" points="136.6 113.99 94.07 113.99 101.16 106.91 104.1 103.96 108.25 99.82 114.12 93.94 115.34 92.73 116.55 93.94 122.42 99.81 126.58 103.96 136.6 113.99"/>
        </g>
        <circle class="cls-1" cx="132.9" cy="96.3" r="7.8"/>
      </g>
    </g>
  </g>
</svg>